<?xml version="1.0" standalone="no"?>
<!DOCTYPE svg PUBLIC "-//W3C//DTD SVG 20010904//EN"
 "http://www.w3.org/TR/2001/REC-SVG-20010904/DTD/svg10.dtd">
<svg version="1.0" xmlns="http://www.w3.org/2000/svg"
 width="310.000000pt" height="310.000000pt" viewBox="0 0 310.000000 310.000000"
 preserveAspectRatio="xMidYMid meet">
<metadata>
Created by potrace 1.11, written by Peter Selinger 2001-2013
</metadata>
<g transform="translate(0.000000,310.000000) scale(0.100000,-0.100000)"
fill="#000000" stroke="none">
<path d="M0 1550 l0 -1550 1550 0 1550 0 0 1550 0 1550 -1550 0 -1550 0 0
-1550z m777 195 l3 -580 190 -3 190 -2 2 582 3 583 95 0 95 0 3 -677 2 -678
-390 0 -390 0 0 673 c0 371 3 677 7 681 4 4 48 5 98 4 l90 -3 2 -580z m1741
483 l3 -98 -291 0 -290 0 0 -195 0 -195 290 0 290 0 0 -385 0 -385 -390 0
-390 0 0 95 0 95 290 2 291 3 0 190 0 190 -291 3 -290 2 0 383 c0 211 3 387 7
390 4 4 178 6 387 5 l381 -3 3 -97z"/>
</g>
</svg>
